<?xml version="1.0" standalone="no"?>
<!DOCTYPE svg PUBLIC "-//W3C//DTD SVG 20010904//EN"
 "http://www.w3.org/TR/2001/REC-SVG-20010904/DTD/svg10.dtd">
<svg version="1.0" xmlns="http://www.w3.org/2000/svg"
 width="512.000000pt" height="512.000000pt" viewBox="0 0 512.000000 512.000000"
 preserveAspectRatio="xMidYMid meet">
<metadata>
Created by potrace 1.11, written by Peter Selinger 2001-2013
</metadata>
<g transform="translate(0.000000,512.000000) scale(0.100000,-0.100000)"
fill="#000000" stroke="none">
<path d="M2978 5099 c-194 -27 -366 -152 -545 -394 -40 -55 -78 -105 -83 -112
-6 -7 -10 -14 -10 -17 0 -5 -71 -120 -87 -141 -5 -6 -18 -28 -30 -50 -11 -22
-35 -65 -52 -95 -17 -30 -55 -102 -83 -160 -29 -58 -55 -107 -58 -110 -11 -10
-74 -145 -72 -152 1 -5 -2 -8 -8 -8 -6 0 -9 -3 -8 -7 1 -5 -15 -41 -35 -80
-20 -40 -37 -79 -37 -88 0 -8 -4 -15 -9 -15 -10 0 -27 -39 -23 -52 1 -5 -3 -8
-10 -8 -6 0 -8 -3 -5 -6 4 -4 -2 -19 -13 -34 -11 -16 -20 -31 -20 -35 0 -4
-14 -37 -32 -74 -18 -36 -33 -68 -33 -71 0 -3 -8 -19 -18 -36 -9 -17 -13 -34
-10 -38 4 -3 1 -6 -5 -6 -7 0 -12 -4 -12 -9 0 -5 -14 -40 -32 -78 -17 -37 -32
-70 -33 -73 -1 -3 -10 -23 -20 -45 -10 -22 -19 -42 -20 -45 -2 -5 -16 -37 -63
-140 -11 -25 -32 -74 -47 -110 -15 -36 -35 -83 -45 -105 -9 -22 -28 -67 -41
-100 -13 -33 -28 -63 -34 -67 -5 -4 -6 -8 -2 -8 5 0 0 -16 -12 -36 -12 -19
-17 -32 -11 -29 5 3 1 -11 -9 -32 -16 -32 -27 -58 -36 -83 -2 -7 -24 -61 -32
-80 -3 -8 -5 -18 -5 -22 1 -5 -3 -8 -9 -8 -5 0 -7 -5 -4 -10 4 -6 2 -16 -3
-23 -8 -10 -46 -106 -56 -142 -2 -5 -8 -21 -13 -35 -6 -14 -9 -28 -6 -32 2 -5
0 -8 -5 -8 -5 0 -12 -12 -15 -27 -3 -16 -11 -41 -18 -58 -7 -16 -11 -34 -10
-39 1 -4 -3 -13 -8 -20 -6 -6 -14 -30 -20 -51 -5 -22 -19 -71 -30 -110 -29
-96 -35 -129 -35 -206 0 -80 17 -136 62 -209 74 -118 217 -223 417 -307 39
-17 84 -34 100 -38 35 -10 35 -10 55 -18 8 -3 35 -11 60 -18 60 -16 67 -18 88
-23 9 -3 17 -5 17 -6 0 -1 14 -3 30 -5 17 -1 30 -3 30 -4 0 -6 98 -23 124 -22
12 1 28 -2 34 -6 5 -3 31 -8 56 -10 25 -2 64 -6 86 -9 183 -21 688 -22 723 0
6 3 13 2 17 -4 4 -6 11 -7 18 -3 6 4 25 8 42 10 16 2 48 6 70 9 22 3 47 5 55
6 8 0 33 4 55 9 22 4 56 11 75 14 19 3 42 8 50 10 8 2 26 6 40 9 39 8 61 14
112 29 26 8 49 12 52 9 4 -3 6 1 6 8 0 7 3 11 6 7 11 -10 234 80 234 95 0 4 3
7 8 7 17 -3 30 2 52 21 13 11 29 20 37 20 7 0 13 4 13 9 0 5 9 13 20 16 38 12
174 159 209 226 19 35 34 65 33 67 -1 1 -2 3 -1 5 10 31 17 107 10 107 -3 0
-6 17 -7 37 -1 57 -21 169 -35 195 -5 9 -9 28 -9 42 0 14 -4 26 -8 26 -4 0 -9
8 -10 18 -2 22 -7 43 -15 62 -15 37 -41 126 -39 133 1 4 -2 7 -8 7 -6 0 -9 3
-8 8 1 4 -3 16 -9 27 -6 11 -11 23 -11 28 -1 25 -15 67 -23 67 -5 0 -8 3 -8 8
1 4 0 10 -1 15 -1 4 -3 10 -4 15 -2 10 -45 117 -68 169 -10 23 -18 44 -18 47
0 2 -10 26 -22 53 -12 26 -22 51 -23 56 -2 4 -4 10 -5 15 -1 4 -2 10 -1 15 0
4 -3 7 -8 7 -5 0 -12 11 -15 25 -4 14 -17 49 -30 78 -24 54 -32 75 -35 92 -2
6 -9 17 -17 26 -8 9 -11 19 -7 22 3 4 1 7 -6 7 -7 0 -9 5 -6 10 3 6 2 10 -3
10 -5 0 -9 6 -9 13 0 6 -10 32 -21 56 -12 25 -22 51 -22 58 0 7 -4 13 -10 13
-5 0 -10 6 -10 13 0 8 -16 47 -36 88 -20 41 -37 80 -38 87 -1 7 -8 18 -14 24
-7 7 -12 16 -12 22 0 5 -11 32 -24 60 -13 28 -51 110 -84 181 -33 72 -75 164
-95 205 -87 187 -126 294 -157 424 -24 101 -30 142 -31 214 0 75 7 95 32 82
10 -6 19 -17 19 -25 0 -8 4 -15 8 -15 5 0 19 -22 31 -48 12 -26 37 -65 55 -87
l33 -39 27 18 c16 10 25 23 22 31 -3 8 -2 17 3 19 4 3 6 47 3 98 -9 178 -7
257 5 269 19 19 46 -11 68 -78 10 -32 23 -64 28 -70 5 -7 6 -13 2 -13 -4 0 -2
-7 5 -15 7 -8 9 -15 5 -15 -4 0 -2 -7 5 -15 7 -8 10 -15 6 -15 -3 0 5 -29 19
-65 13 -36 22 -65 18 -65 -3 0 0 -6 6 -14 10 -12 14 -23 24 -71 2 -5 8 -23 14
-40 6 -16 25 -68 43 -115 35 -96 33 -92 91 -215 23 -49 46 -91 50 -93 5 -2 9
-10 9 -18 0 -8 5 -14 10 -14 6 0 10 -6 10 -12 0 -27 124 -156 177 -183 21 -11
40 -23 43 -27 3 -3 25 -9 48 -13 32 -4 50 -2 68 10 35 23 30 55 -16 103 -22
22 -40 45 -40 51 0 6 -3 11 -7 11 -9 0 -33 49 -33 67 0 7 -4 13 -8 13 -5 0 -9
6 -10 13 -1 15 -7 37 -15 57 -11 28 -31 105 -28 114 1 4 -4 14 -10 22 -6 8 -9
14 -6 14 3 0 1 15 -5 33 -5 17 -11 43 -12 57 -1 14 -6 31 -10 38 -4 7 -9 25
-11 40 -3 15 -7 38 -11 52 -3 14 -10 43 -16 65 -5 22 -10 50 -11 63 -1 12 -6
22 -11 22 -5 0 -7 3 -3 6 3 3 -1 23 -8 45 -8 21 -12 39 -10 39 2 0 -2 18 -10
40 -8 22 -14 42 -15 45 0 3 0 6 -1 8 0 1 -2 9 -4 18 -8 43 -51 165 -60 171 -5
4 -6 8 -1 8 5 0 3 7 -4 15 -7 8 -10 15 -7 15 10 0 -80 174 -102 197 -12 12
-21 27 -21 33 0 22 -128 138 -183 165 -101 49 -246 65 -399 44z"/>
<path d="M920 2068 c-179 -75 -315 -141 -395 -193 -30 -19 -58 -35 -61 -35 -2
0 -14 -9 -26 -20 -12 -11 -28 -20 -35 -20 -8 0 -11 -4 -8 -10 3 -5 1 -10 -5
-10 -13 0 -51 -30 -115 -90 -167 -156 -252 -317 -260 -490 -12 -254 142 -490
456 -698 135 -90 274 -157 522 -253 43 -16 268 -85 307 -94 8 -2 62 -15 120
-29 58 -14 121 -27 140 -30 19 -3 46 -8 60 -11 14 -2 36 -7 50 -10 57 -11 236
-36 385 -52 39 -4 261 -8 495 -8 424 0 557 6 690 30 14 2 48 7 75 10 51 5 127
18 235 40 14 2 39 7 55 10 210 35 585 156 785 253 85 41 262 141 270 152 3 4
16 13 30 20 39 20 83 58 178 150 155 152 227 288 239 455 13 178 -53 333 -209
496 -122 129 -222 205 -374 285 -49 26 -91 50 -94 53 -3 3 -12 7 -20 9 -8 2
-47 19 -86 38 -39 19 -76 34 -83 34 -6 0 -11 4 -11 8 0 5 -6 9 -12 9 -7 0 -25
4 -40 8 -28 7 -39 -7 -17 -20 6 -4 8 -13 5 -20 -2 -7 -2 -16 2 -20 4 -4 7 -10
8 -13 0 -4 4 -15 8 -24 4 -9 9 -25 11 -35 2 -10 4 -19 5 -20 2 -2 4 -7 5 -13
1 -5 4 -12 5 -15 1 -3 3 -8 4 -12 2 -5 8 -28 16 -53 13 -44 17 -58 23 -82 2
-7 6 -22 10 -33 6 -19 12 -48 24 -110 3 -16 6 -56 7 -87 0 -32 5 -58 9 -58 5
0 5 -5 1 -12 -4 -6 -8 -32 -9 -57 -2 -25 -4 -47 -5 -48 -1 -2 -3 -6 -4 -10 -1
-5 -5 -14 -9 -20 -5 -7 -6 -13 -3 -13 10 0 -43 -110 -81 -167 -34 -51 -163
-194 -163 -180 0 5 -34 -21 -71 -55 -10 -10 -22 -19 -26 -19 -20 -4 -53 -23
-53 -31 0 -4 -9 -8 -19 -8 -11 0 -21 -3 -23 -7 -4 -10 -91 -53 -107 -53 -6 0
-11 -4 -11 -8 0 -5 -6 -9 -12 -9 -15 -1 -111 -36 -118 -43 -3 -3 -9 -5 -15 -5
-12 -1 -93 -23 -115 -32 -8 -3 -21 -7 -29 -9 -46 -9 -117 -27 -125 -32 -5 -3
-25 -6 -45 -8 -20 -1 -47 -5 -61 -8 -13 -3 -42 -8 -65 -11 -22 -3 -58 -8 -80
-12 -22 -3 -56 -7 -75 -8 -19 -1 -73 -6 -120 -10 -105 -10 -460 -13 -517 -5
-24 4 -43 3 -43 -2 0 -5 -5 -6 -11 -2 -7 4 -33 8 -58 10 -108 8 -218 22 -376
49 -73 12 -183 38 -202 47 -12 6 -30 12 -40 13 -38 4 -84 18 -89 26 -3 5 -11
9 -19 9 -8 0 -26 5 -42 12 -15 6 -32 10 -36 9 -4 -1 -15 5 -23 14 -9 8 -22 16
-30 16 -27 3 -32 4 -40 12 -4 4 -30 19 -58 33 -102 51 -246 153 -246 174 0 5
-5 10 -11 10 -16 0 -54 44 -103 120 -60 92 -96 174 -100 232 -1 3 -3 9 -6 12
-7 6 -4 133 5 178 3 18 8 48 12 67 3 19 11 52 19 73 7 21 11 38 9 38 -2 0 2
18 10 41 8 23 12 45 9 50 -3 5 0 9 5 9 6 0 11 8 11 18 1 9 8 35 16 57 8 22 17
47 19 55 37 133 38 126 -5 108z"/>
</g>
</svg>
